<svg width="20" height="20" viewBox="0 0 20 20" fill="none" xmlns="http://www.w3.org/2000/svg">
<path fill-rule="evenodd" clip-rule="evenodd" d="M0 1.5C0 1.10218 0.098772 0.720644 0.274587 0.43934C0.450403 0.158035 0.68886 0 0.9375 0H19.0625C19.3111 0 19.5496 0.158035 19.7254 0.43934C19.9012 0.720644 20 1.10218 20 1.5C20 1.89782 19.9012 2.27936 19.7254 2.56066C19.5496 2.84197 19.3111 3 19.0625 3H0.9375C0.68886 3 0.450403 2.84197 0.274587 2.56066C0.098772 2.27936 0 1.89782 0 1.5ZM0 10C0 9.60218 0.098772 9.22064 0.274587 8.93934C0.450403 8.65804 0.68886 8.5 0.9375 8.5H19.0625C19.3111 8.5 19.5496 8.65804 19.7254 8.93934C19.9012 9.22064 20 9.60218 20 10C20 10.3978 19.9012 10.7794 19.7254 11.0607C19.5496 11.342 19.3111 11.5 19.0625 11.5H0.9375C0.68886 11.5 0.450403 11.342 0.274587 11.0607C0.098772 10.7794 0 10.3978 0 10ZM0.9375 17C0.68886 17 0.450403 17.158 0.274587 17.4393C0.098772 17.7206 0 18.1022 0 18.5C0 18.8978 0.098772 19.2794 0.274587 19.5607C0.450403 19.842 0.68886 20 0.9375 20H19.0625C19.3111 20 19.5496 19.842 19.7254 19.5607C19.9012 19.2794 20 18.8978 20 18.5C20 18.1022 19.9012 17.7206 19.7254 17.4393C19.5496 17.158 19.3111 17 19.0625 17H0.9375Z" fill="#D0D4DE"/>
</svg>
