<svg width="25" height="28" viewBox="0 0 25 28" fill="none" xmlns="http://www.w3.org/2000/svg">
<path d="M22.5 2.54545H20V1.52727C20 1.12221 19.842 0.733747 19.5607 0.447328C19.2794 0.160909 18.8978 0 18.5 0C18.1022 0 17.7206 0.160909 17.4393 0.447328C17.158 0.733747 17 1.12221 17 1.52727V2.54545H8V1.52727C8 1.12221 7.84196 0.733747 7.56066 0.447328C7.27936 0.160909 6.89782 0 6.5 0C6.10218 0 5.72064 0.160909 5.43934 0.447328C5.15804 0.733747 5 1.12221 5 1.52727V2.54545H2.5C1.83797 2.5488 1.20399 2.81805 0.735863 3.2947C0.267733 3.77134 0.00328556 4.41684 0 5.09091V25.4545C0.00328556 26.1286 0.267733 26.7741 0.735863 27.2508C1.20399 27.7274 1.83797 27.9967 2.5 28H22.5C23.162 27.9967 23.796 27.7274 24.2641 27.2508C24.7323 26.7741 24.9967 26.1286 25 25.4545V5.09091C24.9967 4.41684 24.7323 3.77134 24.2641 3.2947C23.796 2.81805 23.162 2.5488 22.5 2.54545ZM22 5.6V8.65455H3V5.6H22ZM3 24.9455V11.7091H22V24.9455H3ZM18.0875 14.2291C18.2229 14.3741 18.3288 14.5449 18.3991 14.7318C18.4693 14.9186 18.5025 15.1178 18.4966 15.3178C18.4908 15.5178 18.4462 15.7146 18.3652 15.897C18.2843 16.0793 18.1686 16.2434 18.025 16.38L12.2 21.98C11.9187 22.2485 11.548 22.3986 11.1625 22.4C10.7805 22.3992 10.4135 22.2488 10.1375 21.98L6.9625 18.9255C6.81933 18.7869 6.70444 18.621 6.62441 18.4372C6.54438 18.2533 6.50079 18.0552 6.49614 17.8542C6.4915 17.6532 6.52589 17.4532 6.59734 17.2657C6.66878 17.0783 6.77589 16.907 6.9125 16.7618C7.04746 16.6164 7.20936 16.4997 7.38887 16.4184C7.56837 16.3371 7.76191 16.2928 7.95833 16.2881C8.15474 16.2833 8.35013 16.3183 8.53321 16.3908C8.71629 16.4634 8.88344 16.5722 9.025 16.7109L11.1625 18.7727L15.975 14.1655C16.1165 14.026 16.2841 13.9168 16.4678 13.8443C16.6515 13.7718 16.8475 13.7375 17.0444 13.7434C17.2413 13.7494 17.4351 13.7954 17.6142 13.8788C17.7934 13.9622 17.9543 14.0813 18.0875 14.2291Z" fill="black"/>
</svg>
