<svg width="25" height="25" viewBox="0 0 25 25" fill="none" xmlns="http://www.w3.org/2000/svg">
<path fill-rule="evenodd" clip-rule="evenodd" d="M0 1.875C0 1.37772 0.123465 0.900805 0.343234 0.549175C0.563003 0.197544 0.861074 0 1.17188 0H23.8281C24.1389 0 24.437 0.197544 24.6568 0.549175C24.8765 0.900805 25 1.37772 25 1.875C25 2.37228 24.8765 2.8492 24.6568 3.20083C24.437 3.55246 24.1389 3.75 23.8281 3.75H1.17188C0.861074 3.75 0.563003 3.55246 0.343234 3.20083C0.123465 2.8492 0 2.37228 0 1.875ZM0 12.5C0 12.0027 0.123465 11.5258 0.343234 11.1742C0.563003 10.8225 0.861074 10.625 1.17188 10.625H23.8281C24.1389 10.625 24.437 10.8225 24.6568 11.1742C24.8765 11.5258 25 12.0027 25 12.5C25 12.9973 24.8765 13.4742 24.6568 13.8258C24.437 14.1775 24.1389 14.375 23.8281 14.375H1.17188C0.861074 14.375 0.563003 14.1775 0.343234 13.8258C0.123465 13.4742 0 12.9973 0 12.5ZM1.17188 21.25C0.861074 21.25 0.563003 21.4475 0.343234 21.7992C0.123465 22.1508 0 22.6277 0 23.125C0 23.6223 0.123465 24.0992 0.343234 24.4508C0.563003 24.8025 0.861074 25 1.17188 25H23.8281C24.1389 25 24.437 24.8025 24.6568 24.4508C24.8765 24.0992 25 23.6223 25 23.125C25 22.6277 24.8765 22.1508 24.6568 21.7992C24.437 21.4475 24.1389 21.25 23.8281 21.25H1.17188Z" fill="black"/>
</svg>
