<svg width="40" height="40" viewBox="0 0 40 40" fill="none" xmlns="http://www.w3.org/2000/svg">
<path d="M15.8333 27.4999L27.5 19.9999L15.8333 12.4999V27.4999ZM20 36.6666C17.6944 36.6666 15.5278 36.2288 13.5 35.3533C11.4722 34.4788 9.70831 33.2916 8.20831 31.7916C6.70831 30.2916 5.52109 28.5277 4.64665 26.4999C3.77109 24.4721 3.33331 22.3055 3.33331 19.9999C3.33331 17.6944 3.77109 15.5277 4.64665 13.4999C5.52109 11.4721 6.70831 9.70825 8.20831 8.20825C9.70831 6.70825 11.4722 5.52047 13.5 4.64492C15.5278 3.77047 17.6944 3.33325 20 3.33325C22.3055 3.33325 24.4722 3.77047 26.5 4.64492C28.5278 5.52047 30.2916 6.70825 31.7916 8.20825C33.2916 9.70825 34.4789 11.4721 35.3533 13.4999C36.2289 15.5277 36.6666 17.6944 36.6666 19.9999C36.6666 22.3055 36.2289 24.4721 35.3533 26.4999C34.4789 28.5277 33.2916 30.2916 31.7916 31.7916C30.2916 33.2916 28.5278 34.4788 26.5 35.3533C24.4722 36.2288 22.3055 36.6666 20 36.6666Z" fill="url(#paint0_linear_84_525)"/>
<defs>
<linearGradient id="paint0_linear_84_525" x1="20" y1="3.33325" x2="20" y2="36.6666" gradientUnits="userSpaceOnUse">
<stop stop-color="#FF0000"/>
<stop offset="1" stop-color="#FF7A00"/>
</linearGradient>
</defs>
</svg>
