<svg width="30" height="24" viewBox="0 0 30 24" fill="none" xmlns="http://www.w3.org/2000/svg">
<path d="M25.9997 24C25.8682 24.0002 25.7381 23.9744 25.6166 23.9241C25.4952 23.8737 25.385 23.7998 25.2923 23.7067L3.27523 1.69005C3.09548 1.50084 2.99674 1.2489 3.00008 0.987943C3.00342 0.726985 3.10858 0.477655 3.29312 0.293114C3.47766 0.108573 3.727 0.00342321 3.98796 8.21133e-05C4.24893 -0.00325898 4.50087 0.0954737 4.69008 0.275229L26.7071 22.2918C26.847 22.4318 26.9422 22.6101 26.9808 22.8041C27.0194 22.9982 26.9996 23.1993 26.9238 23.3822C26.8481 23.565 26.7199 23.7212 26.5554 23.8312C26.391 23.9412 26.1976 23.9999 25.9997 24ZM14.4908 15.7344L11.2514 12.4951C11.2328 12.4767 11.209 12.4645 11.1832 12.4604C11.1574 12.4562 11.1309 12.4603 11.1075 12.4719C11.0841 12.4836 11.065 12.5023 11.0527 12.5254C11.0405 12.5485 11.0358 12.5749 11.0394 12.6008C11.1701 13.4412 11.5648 14.2182 12.1662 14.8196C12.7676 15.421 13.5447 15.8156 14.3851 15.9464C14.411 15.95 14.4373 15.9453 14.4604 15.9331C14.4836 15.9208 14.5023 15.9017 14.5139 15.8783C14.5256 15.8549 14.5296 15.8284 14.5255 15.8026C14.5213 15.7768 14.5092 15.753 14.4908 15.7344ZM15.4916 8.24749L18.7359 11.4906C18.7545 11.5092 18.7784 11.5216 18.8043 11.5259C18.8303 11.5302 18.8569 11.5262 18.8804 11.5145C18.904 11.5028 18.9232 11.484 18.9355 11.4607C18.9477 11.4374 18.9523 11.4109 18.9486 11.3849C18.8182 10.5433 18.4233 9.76513 17.8211 9.16296C17.2189 8.56079 16.4407 8.1659 15.5991 8.03546C15.5731 8.03144 15.5464 8.03575 15.523 8.04779C15.4995 8.05983 15.4804 8.07897 15.4685 8.10249C15.4566 8.126 15.4524 8.15269 15.4565 8.17873C15.4607 8.20477 15.4729 8.22884 15.4916 8.24749Z" fill="#B3B7C1"/>
<path d="M29.6848 13.085C29.8917 12.7602 30.0011 12.3829 30 11.9978C29.9989 11.6128 29.8873 11.2361 29.6786 10.9125C28.025 8.355 25.8795 6.1825 23.4748 4.62938C20.8106 2.90938 17.8734 2 14.9786 2C13.4526 2.0021 11.9369 2.25093 10.4903 2.73688C10.4498 2.75034 10.4134 2.77395 10.3847 2.80545C10.3559 2.83695 10.3356 2.8753 10.3259 2.91684C10.3161 2.95838 10.3171 3.00173 10.3288 3.04276C10.3405 3.08379 10.3626 3.12114 10.3928 3.15125L13.345 6.10375C13.3757 6.13448 13.4139 6.15669 13.4557 6.1682C13.4976 6.1797 13.5417 6.18011 13.5838 6.16938C14.5845 5.92549 15.6311 5.94336 16.6229 6.22127C17.6147 6.49918 18.5182 7.02776 19.2465 7.75613C19.9748 8.4845 20.5033 9.38813 20.7812 10.38C21.0591 11.3719 21.077 12.4186 20.8331 13.4194C20.8225 13.4614 20.823 13.5054 20.8345 13.5471C20.846 13.5889 20.8681 13.6269 20.8987 13.6575L25.1452 17.9075C25.1894 17.9518 25.2486 17.9779 25.311 17.9806C25.3735 17.9834 25.4348 17.9627 25.4827 17.9225C27.1173 16.5291 28.5337 14.8985 29.6848 13.085ZM14.9986 18C14.0904 18.0001 13.1941 17.7939 12.3771 17.3971C11.5602 17.0002 10.844 16.4231 10.2826 15.7092C9.72113 14.9952 9.32908 14.1631 9.136 13.2756C8.94291 12.3881 8.95383 11.4683 9.16792 10.5856C9.17854 10.5436 9.17807 10.4996 9.16657 10.4579C9.15506 10.4161 9.13292 10.3781 9.1023 10.3475L4.92518 6.16813C4.88088 6.12378 4.82155 6.09769 4.75893 6.09503C4.69631 6.09236 4.63498 6.11332 4.58708 6.15375C3.06285 7.45438 1.64985 9.03687 0.358089 10.8862C0.131975 11.2108 0.00744516 11.5953 0.000323491 11.9908C-0.00679818 12.3863 0.10381 12.775 0.318093 13.1075C1.96857 15.6906 4.09213 17.8662 6.46004 19.3981C9.12792 21.125 11.9939 22 14.9786 22C16.5201 21.9959 18.0515 21.7523 19.5182 21.2781C19.5591 21.2651 19.5959 21.2417 19.6251 21.2103C19.6543 21.179 19.675 21.1406 19.6851 21.0989C19.6952 21.0572 19.6944 21.0136 19.6828 20.9723C19.6712 20.931 19.6492 20.8934 19.6188 20.8631L16.6522 17.8969C16.6216 17.8663 16.5836 17.8441 16.5419 17.8326C16.5001 17.8211 16.4561 17.8206 16.4141 17.8312C15.9507 17.9436 15.4755 18.0002 14.9986 18Z" fill="#B3B7C1"/>
</svg>
