<svg width="70" height="70" viewBox="0 0 70 70" fill="none" xmlns="http://www.w3.org/2000/svg">
<circle cx="35" cy="35" r="35" fill="#D9D9D9"/>
<path d="M38.0117 44.5195H31.3906L30.6875 14.5781H38.6562L38.0117 44.5195ZM30.1602 52.8984C30.1602 52.0977 30.3652 51.3555 30.7754 50.6719C31.1855 49.9688 31.7422 49.4121 32.4453 49.002C33.1484 48.5918 33.9102 48.3867 34.7305 48.3867C35.5312 48.3867 36.2734 48.5918 36.957 49.002C37.6602 49.4121 38.2168 49.9688 38.627 50.6719C39.0371 51.3555 39.2422 52.0977 39.2422 52.8984C39.2422 53.7188 39.0371 54.4805 38.627 55.1836C38.2168 55.8867 37.6602 56.4434 36.957 56.8535C36.2734 57.2637 35.5312 57.4688 34.7305 57.4688C33.9102 57.4688 33.1484 57.2637 32.4453 56.8535C31.7422 56.4434 31.1855 55.8867 30.7754 55.1836C30.3652 54.4805 30.1602 53.7188 30.1602 52.8984Z" fill="white"/>
</svg>
