<svg width="22" height="22" viewBox="0 0 22 22" fill="none" xmlns="http://www.w3.org/2000/svg">
<path d="M11 0C17.0753 0 22 4.9247 22 11C22 17.0753 17.0753 22 11 22C4.9247 22 0 17.0753 0 11C0 4.9247 4.9247 0 11 0ZM11 14.9996C10.8658 14.9952 10.7321 15.0177 10.6069 15.066C10.4816 15.1143 10.3673 15.1873 10.2708 15.2806C10.1744 15.3739 10.0976 15.4857 10.0452 15.6093C9.99283 15.7329 9.96582 15.8658 9.96582 16C9.96582 16.1343 9.99283 16.2672 10.0452 16.3908C10.0976 16.5144 10.1744 16.6262 10.2708 16.7195C10.3673 16.8128 10.4816 16.8858 10.6069 16.9341C10.7321 16.9824 10.8658 17.0049 11 17.0005C11.2596 16.9919 11.5057 16.8827 11.6863 16.696C11.8669 16.5094 11.9678 16.2598 11.9678 16C11.9678 15.7403 11.8669 15.4907 11.6863 15.3041C11.5057 15.1174 11.2596 15.0082 11 14.9996ZM13.948 5.863C13.134 5.0435 11.9207 4.6717 10.9032 4.8037C9.801 4.9467 9.1949 5.1667 8.36 5.9004C7.6637 6.512 7.2281 7.37 7.0466 8.448C7.01349 8.64419 7.05967 8.84551 7.17499 9.00765C7.2903 9.16979 7.46531 9.27949 7.6615 9.3126C7.85769 9.34571 8.05901 9.29953 8.22115 9.18421C8.38329 9.0689 8.49299 8.89389 8.5261 8.6977C8.6526 7.9431 8.9298 7.3964 9.3511 7.0268C9.9253 6.523 10.2641 6.3998 11.0968 6.292C11.6677 6.2172 12.4124 6.446 12.8843 6.9212C13.332 7.3711 13.4563 7.8166 13.3848 8.3347C13.3309 8.7175 13.0614 9.1971 12.7171 9.5073C12.595 9.6129 12.0978 10.043 11.9713 10.1563C11.7355 10.3628 11.5097 10.5805 11.2948 10.8086C10.8931 11.2473 10.5861 11.7641 10.3928 12.3266C10.2685 12.6742 10.1772 13.1142 10.1134 13.6565C10.0983 13.7561 10.1034 13.8576 10.1283 13.9552C10.1533 14.0527 10.1977 14.1443 10.2588 14.2243C10.3199 14.3043 10.3965 14.3713 10.484 14.4211C10.5715 14.4709 10.6681 14.5026 10.7681 14.5143C10.8682 14.5259 10.9695 14.5173 11.0661 14.489C11.1628 14.4607 11.2527 14.4132 11.3306 14.3494C11.4085 14.2856 11.4727 14.2067 11.5195 14.1175C11.5663 14.0283 11.5946 13.9307 11.6028 13.8303C11.6545 13.3936 11.7238 13.0592 11.8041 12.8348C11.9482 12.4344 12.1341 12.1099 12.3959 11.8283L12.5081 11.7073L12.5741 11.6391C12.7182 11.4928 12.9085 11.3278 13.6774 10.6601C14.2989 10.1211 14.7642 9.3027 14.8698 8.5426C15.004 7.5834 14.7466 6.666 13.948 5.863Z" fill="#CFD3D9"/>
</svg>
