<svg width="31" height="31" viewBox="0 0 31 31" fill="none" xmlns="http://www.w3.org/2000/svg">
<path d="M28.2098 17.3599H17.3599V28.2098C17.3599 28.7853 17.1312 29.3372 16.7243 29.7442C16.3173 30.1511 15.7654 30.3797 15.1899 30.3797C14.6144 30.3797 14.0624 30.1511 13.6555 29.7442C13.2485 29.3372 13.0199 28.7853 13.0199 28.2098V17.3599H2.16998C1.59447 17.3599 1.04252 17.1312 0.635573 16.7243C0.228623 16.3173 0 15.7654 0 15.1899C0 14.6144 0.228623 14.0624 0.635573 13.6555C1.04252 13.2485 1.59447 13.0199 2.16998 13.0199H13.0199V2.16998C13.0199 1.59447 13.2485 1.04252 13.6555 0.635572C14.0624 0.228622 14.6144 0 15.1899 0C15.7654 0 16.3173 0.228622 16.7243 0.635572C17.1312 1.04252 17.3599 1.59447 17.3599 2.16998V13.0199H28.2098C28.7853 13.0199 29.3372 13.2485 29.7442 13.6555C30.1511 14.0624 30.3797 14.6144 30.3797 15.1899C30.3797 15.7654 30.1511 16.3173 29.7442 16.7243C29.3372 17.1312 28.7853 17.3599 28.2098 17.3599Z" fill="#FF7A00"/>
</svg>
