<svg width="28" height="28" viewBox="0 0 28 28" fill="none" xmlns="http://www.w3.org/2000/svg">
<path d="M25.5585 16.0649H16.0649V25.5585C16.0649 26.0621 15.8648 26.5451 15.5087 26.9012C15.1527 27.2572 14.6697 27.4573 14.1661 27.4573C13.6626 27.4573 13.1796 27.2572 12.8235 26.9012C12.4674 26.5451 12.2674 26.0621 12.2674 25.5585V16.0649H2.77373C2.27016 16.0649 1.78721 15.8648 1.43113 15.5087C1.07505 15.1527 0.875 14.6697 0.875 14.1661C0.875 13.6626 1.07505 13.1796 1.43113 12.8235C1.78721 12.4675 2.27016 12.2674 2.77373 12.2674H12.2674V2.77373C12.2674 2.27016 12.4674 1.78721 12.8235 1.43113C13.1796 1.07504 13.6626 0.875 14.1661 0.875C14.6697 0.875 15.1527 1.07504 15.5087 1.43113C15.8648 1.78721 16.0649 2.27016 16.0649 2.77373V12.2674H25.5585C26.0621 12.2674 26.5451 12.4675 26.9012 12.8235C27.2572 13.1796 27.4573 13.6626 27.4573 14.1661C27.4573 14.6697 27.2572 15.1527 26.9012 15.5087C26.5451 15.8648 26.0621 16.0649 25.5585 16.0649Z" fill="#FF7A00"/>
</svg>
