<svg width="18" height="14" viewBox="0 0 18 14" fill="none" xmlns="http://www.w3.org/2000/svg">
<path d="M5.7713 10.0816L15.296 0.448979C15.5919 0.149659 15.9686 0 16.426 0C16.8834 0 17.2601 0.149659 17.5561 0.448979C17.852 0.748299 18 1.12925 18 1.59184C18 2.05442 17.852 2.43537 17.5561 2.73469L6.90134 13.5102C6.57847 13.8367 6.20179 14 5.7713 14C5.34081 14 4.96413 13.8367 4.64126 13.5102L0.443946 9.26531C0.147981 8.96599 0 8.58503 0 8.12245C0 7.65986 0.147981 7.27891 0.443946 6.97959C0.73991 6.68027 1.11659 6.53061 1.57399 6.53061C2.03139 6.53061 2.40807 6.68027 2.70404 6.97959L5.7713 10.0816Z" fill="#FF7A00"/>
</svg>
