<svg width="20" height="20" viewBox="0 0 20 20" fill="none" xmlns="http://www.w3.org/2000/svg">
<path d="M14.1667 18.3332H5.83333C5.39131 18.3332 4.96738 18.1576 4.65482 17.845C4.34226 17.5325 4.16667 17.1085 4.16667 16.6665V5.83317H2.5V4.1665H5.83333V3.33317C5.83333 2.89114 6.00893 2.46722 6.32149 2.15466C6.63405 1.8421 7.05797 1.6665 7.5 1.6665H12.5C12.942 1.6665 13.3659 1.8421 13.6785 2.15466C13.9911 2.46722 14.1667 2.89114 14.1667 3.33317V4.1665H17.5V5.83317H15.8333V16.6665C15.8333 17.1085 15.6577 17.5325 15.3452 17.845C15.0326 18.1576 14.6087 18.3332 14.1667 18.3332ZM5.83333 5.83317V16.6665H14.1667V5.83317H5.83333ZM7.5 3.33317V4.1665H12.5V3.33317H7.5ZM12.5 14.9998H10.8333V7.49984H12.5V14.9998ZM9.16667 14.9998H7.5V7.49984H9.16667V14.9998Z" fill="#D0D4DE"/>
</svg>
