<svg width="86" height="86" viewBox="0 0 86 86" fill="none" xmlns="http://www.w3.org/2000/svg">
<path d="M83.8722 29.6409C87.0247 39.2862 86.6646 49.7356 82.8556 59.141C79.0466 68.5463 72.034 76.3016 63.0582 81.0351C54.0825 85.7685 43.7219 87.1752 33.809 85.0063C23.8961 82.8373 15.0697 77.2325 8.8908 69.1832C2.71191 61.1339 -0.421236 51.1588 0.0455116 41.0221C0.512259 30.8855 4.54883 21.2405 11.4413 13.793C18.3337 6.34562 27.6379 1.57567 37.7081 0.326868C47.7784 -0.921938 57.9659 1.43087 66.4687 6.96914L61.1018 15.2088C54.5434 10.937 46.6857 9.12222 38.9183 10.0854C31.1509 11.0487 23.9744 14.7278 18.6582 20.4722C13.3419 26.2165 10.2284 33.6558 9.86843 41.4744C9.50842 49.293 11.9251 56.987 16.691 63.1956C21.4568 69.4042 28.2648 73.7272 35.9108 75.4002C43.5568 77.0731 51.5481 75.9881 58.4713 72.3371C65.3944 68.6861 70.8034 62.7044 73.7413 55.4498C76.6793 48.1953 76.9571 40.1355 74.5255 32.6959L83.8722 29.6409Z" fill="#FF7A00"/>
<rect x="36.3843" y="36.3848" width="13.2308" height="13.2308" rx="6.61538" fill="url(#paint0_linear_414_553)"/>
<path d="M76.9278 12.2024C77.3692 11.8592 78.0062 11.9445 78.3417 12.3918L82.0958 17.3973C82.426 17.8374 82.3385 18.4616 81.9001 18.7941L55.1609 39.0713C54.7119 39.4117 54.0704 39.3142 53.7429 38.8557L50.1836 33.8727C49.8679 33.4306 49.9628 32.8174 50.3973 32.4914L62.8465 23.1546L76.9278 12.2024Z" fill="url(#paint1_linear_414_553)"/>
<path d="M76.9278 12.2024C77.3692 11.8592 78.0062 11.9445 78.3417 12.3918L82.0958 17.3973C82.426 17.8374 82.3385 18.4616 81.9001 18.7941L55.1609 39.0713C54.7119 39.4117 54.0704 39.3142 53.7429 38.8557L50.1836 33.8727C49.8679 33.4306 49.9628 32.8174 50.3973 32.4914L62.8465 23.1546L76.9278 12.2024Z" fill="#FF0000" fill-opacity="0.2"/>
<defs>
<linearGradient id="paint0_linear_414_553" x1="42.9997" y1="36.3848" x2="42.9997" y2="49.6155" gradientUnits="userSpaceOnUse">
<stop stop-color="#FF0000"/>
<stop offset="1" stop-color="#AD00FF"/>
</linearGradient>
<linearGradient id="paint1_linear_414_553" x1="66.1542" y1="11.5776" x2="66.1542" y2="39.693" gradientUnits="userSpaceOnUse">
<stop stop-color="#FF9900"/>
<stop offset="1" stop-color="#DB00FF" stop-opacity="0.92"/>
</linearGradient>
</defs>
</svg>
