<svg width="187" height="31" viewBox="0 0 187 31" fill="none" xmlns="http://www.w3.org/2000/svg">
<path d="M0.289062 1.71875H23.4531V6.5625H14.7812V30H8.96094V6.5625H0.289062V1.71875Z" fill="url(#paint0_linear_1138_725)" fill-opacity="0.8"/>
<path d="M26.9688 8.78906H32.75V30H26.9688V8.78906ZM29.8594 6.01562C29.2865 6.01562 28.7591 5.88542 28.2773 5.625C27.7956 5.35156 27.4115 4.99349 27.125 4.55078C26.8385 4.09505 26.6953 3.60677 26.6953 3.08594C26.6953 2.55208 26.8385 2.05729 27.125 1.60156C27.4115 1.14583 27.7956 0.78776 28.2773 0.527344C28.7591 0.253906 29.2865 0.117188 29.8594 0.117188C30.4193 0.117188 30.9401 0.253906 31.4219 0.527344C31.9036 0.78776 32.2812 1.14583 32.5547 1.60156C32.8411 2.05729 32.9844 2.55208 32.9844 3.08594C32.9844 3.60677 32.8411 4.09505 32.5547 4.55078C32.2812 4.99349 31.9036 5.35156 31.4219 5.625C30.9401 5.88542 30.4193 6.01562 29.8594 6.01562Z" fill="url(#paint1_linear_1138_725)" fill-opacity="0.8"/>
<path d="M37.2422 8.78906H42.75V12.5H42.9844C43.4401 11.25 44.1823 10.2734 45.2109 9.57031C46.2396 8.86719 47.4635 8.51562 48.8828 8.51562C50.3281 8.51562 51.5651 8.8737 52.5938 9.58984C53.6224 10.306 54.3125 11.276 54.6641 12.5H54.8594C55.3021 11.2891 56.0964 10.3255 57.2422 9.60938C58.388 8.88021 59.7292 8.51562 61.2656 8.51562C62.5807 8.51562 63.7396 8.80208 64.7422 9.375C65.7578 9.9349 66.5456 10.7617 67.1055 11.8555C67.6654 12.9362 67.9453 14.2318 67.9453 15.7422V30H62.1641V16.875C62.1771 15.7031 61.8711 14.8112 61.2461 14.1992C60.6341 13.5872 59.8333 13.2812 58.8438 13.2812C57.776 13.2812 56.9297 13.6263 56.3047 14.3164C55.6927 14.9935 55.3932 15.8984 55.4062 17.0312V30H49.7812V16.7188C49.7943 15.6771 49.4948 14.8438 48.8828 14.2188C48.2839 13.5938 47.4896 13.2812 46.5 13.2812C45.849 13.2812 45.2565 13.4505 44.7227 13.7891C44.1888 14.1146 43.7721 14.5833 43.4727 15.1953C43.1732 15.7943 43.0234 16.4844 43.0234 17.2656V30H37.2422V8.78906Z" fill="url(#paint2_linear_1138_725)" fill-opacity="0.8"/>
<path d="M82.0078 30.4297C79.8594 30.4297 77.9974 29.987 76.4219 29.1016C74.8464 28.2031 73.6354 26.9336 72.7891 25.293C71.9557 23.6523 71.5391 21.7188 71.5391 19.4922C71.5391 17.3307 71.9557 15.4232 72.7891 13.7695C73.6354 12.1029 74.8333 10.8138 76.3828 9.90234C77.9323 8.97786 79.7292 8.51562 81.7734 8.51562C83.6745 8.51562 85.3737 8.91927 86.8711 9.72656C88.3815 10.5208 89.5664 11.7253 90.4258 13.3398C91.2982 14.9544 91.7344 16.9271 91.7344 19.2578V20.8984H77.2422C77.2422 21.9531 77.4375 22.8711 77.8281 23.6523C78.2318 24.4336 78.7982 25.0391 79.5273 25.4688C80.2695 25.8854 81.1354 26.0938 82.125 26.0938C83.0885 26.0807 83.9154 25.8854 84.6055 25.5078C85.2956 25.1172 85.7839 24.5964 86.0703 23.9453H91.5781C91.3047 25.2604 90.7448 26.4062 89.8984 27.3828C89.0521 28.3464 87.9518 29.0951 86.5977 29.6289C85.2565 30.1628 83.7266 30.4297 82.0078 30.4297ZM86.2656 17.2656C86.2656 16.4193 86.0768 15.6576 85.6992 14.9805C85.3346 14.3034 84.8203 13.7826 84.1562 13.418C83.4922 13.0404 82.737 12.8516 81.8906 12.8516C81.0312 12.8516 80.25 13.0469 79.5469 13.4375C78.8568 13.8281 78.3099 14.362 77.9062 15.0391C77.5026 15.7161 77.2812 16.4583 77.2422 17.2656H86.2656Z" fill="url(#paint3_linear_1138_725)" fill-opacity="0.8"/>
<path d="M102.75 1.71875L110.602 20.8984H110.914L118.766 1.71875H126.031V30H120.328V11.4844H120.094L112.711 29.8828H108.805L101.422 11.4062H101.188V30H95.4844V1.71875H102.75Z" fill="url(#paint4_linear_1138_725)" fill-opacity="0.8"/>
<path d="M129.664 24.0625C129.677 21.875 130.413 20.2799 131.871 19.2773C133.329 18.2617 135.224 17.6823 137.555 17.5391C138.987 17.4479 140.745 17.3568 142.828 17.2656V15.5469C142.815 14.6615 142.516 13.9779 141.93 13.4961C141.344 13.0013 140.51 12.7474 139.43 12.7344C138.453 12.7474 137.659 12.9622 137.047 13.3789C136.448 13.7826 136.07 14.349 135.914 15.0781H130.406C130.523 13.8281 130.953 12.7083 131.695 11.7188C132.451 10.7292 133.499 9.94792 134.84 9.375C136.181 8.80208 137.763 8.51562 139.586 8.51562C141.214 8.51562 142.704 8.76953 144.059 9.27734C145.426 9.78516 146.52 10.5794 147.34 11.6602C148.16 12.7279 148.57 14.0755 148.57 15.7031V30H143.102V27.0703H142.945C142.398 28.099 141.604 28.9128 140.562 29.5117C139.521 30.1107 138.245 30.4036 136.734 30.3906C135.354 30.4036 134.13 30.1693 133.062 29.6875C132.008 29.2057 131.174 28.4896 130.562 27.5391C129.964 26.5885 129.664 25.4297 129.664 24.0625ZM135.211 23.9062C135.211 24.7005 135.497 25.3125 136.07 25.7422C136.656 26.1719 137.424 26.3932 138.375 26.4062C139.234 26.4062 140.003 26.2305 140.68 25.8789C141.37 25.5273 141.897 25.0521 142.262 24.4531C142.639 23.8411 142.828 23.1641 142.828 22.4219V20.8789C141.083 20.957 139.638 21.0417 138.492 21.1328C137.464 21.224 136.656 21.5104 136.07 21.9922C135.497 22.4609 135.211 23.099 135.211 23.9062Z" fill="url(#paint5_linear_1138_725)" fill-opacity="0.8"/>
<path d="M164.156 13.125H160.172V23.4766C160.159 24.2708 160.322 24.8242 160.66 25.1367C161.012 25.4362 161.513 25.599 162.164 25.625C162.763 25.625 163.531 25.5859 164.469 25.5078V30.0781C163.609 30.2083 162.561 30.2734 161.324 30.2734C159.163 30.2734 157.464 29.7786 156.227 28.7891C154.99 27.7865 154.378 26.2891 154.391 24.2969V13.125H151.461V8.78906H154.391V3.71094H160.172V8.78906H164.156V13.125Z" fill="url(#paint6_linear_1138_725)" fill-opacity="0.8"/>
<path d="M177.164 30.4297C175.016 30.4297 173.154 29.987 171.578 29.1016C170.003 28.2031 168.792 26.9336 167.945 25.293C167.112 23.6523 166.695 21.7188 166.695 19.4922C166.695 17.3307 167.112 15.4232 167.945 13.7695C168.792 12.1029 169.99 10.8138 171.539 9.90234C173.089 8.97786 174.885 8.51562 176.93 8.51562C178.831 8.51562 180.53 8.91927 182.027 9.72656C183.538 10.5208 184.723 11.7253 185.582 13.3398C186.454 14.9544 186.891 16.9271 186.891 19.2578V20.8984H172.398C172.398 21.9531 172.594 22.8711 172.984 23.6523C173.388 24.4336 173.954 25.0391 174.684 25.4688C175.426 25.8854 176.292 26.0938 177.281 26.0938C178.245 26.0807 179.072 25.8854 179.762 25.5078C180.452 25.1172 180.94 24.5964 181.227 23.9453H186.734C186.461 25.2604 185.901 26.4062 185.055 27.3828C184.208 28.3464 183.108 29.0951 181.754 29.6289C180.413 30.1628 178.883 30.4297 177.164 30.4297ZM181.422 17.2656C181.422 16.4193 181.233 15.6576 180.855 14.9805C180.491 14.3034 179.977 13.7826 179.312 13.418C178.648 13.0404 177.893 12.8516 177.047 12.8516C176.188 12.8516 175.406 13.0469 174.703 13.4375C174.013 13.8281 173.466 14.362 173.062 15.0391C172.659 15.7161 172.438 16.4583 172.398 17.2656H181.422Z" fill="url(#paint7_linear_1138_725)" fill-opacity="0.8"/>
<defs>
<linearGradient id="paint0_linear_1138_725" x1="94" y1="-56.5" x2="94" y2="40" gradientUnits="userSpaceOnUse">
<stop stop-color="#FA7700"/>
<stop offset="0.619792" stop-color="#FF6132"/>
<stop offset="1" stop-color="#F3D741" stop-opacity="0.82"/>
</linearGradient>
<linearGradient id="paint1_linear_1138_725" x1="94" y1="-56.5" x2="94" y2="40" gradientUnits="userSpaceOnUse">
<stop stop-color="#FA7700"/>
<stop offset="0.619792" stop-color="#FF6132"/>
<stop offset="1" stop-color="#F3D741" stop-opacity="0.82"/>
</linearGradient>
<linearGradient id="paint2_linear_1138_725" x1="94" y1="-56.5" x2="94" y2="40" gradientUnits="userSpaceOnUse">
<stop stop-color="#FA7700"/>
<stop offset="0.619792" stop-color="#FF6132"/>
<stop offset="1" stop-color="#F3D741" stop-opacity="0.82"/>
</linearGradient>
<linearGradient id="paint3_linear_1138_725" x1="94" y1="-56.5" x2="94" y2="40" gradientUnits="userSpaceOnUse">
<stop stop-color="#FA7700"/>
<stop offset="0.619792" stop-color="#FF6132"/>
<stop offset="1" stop-color="#F3D741" stop-opacity="0.82"/>
</linearGradient>
<linearGradient id="paint4_linear_1138_725" x1="94" y1="-56.5" x2="94" y2="40" gradientUnits="userSpaceOnUse">
<stop stop-color="#FA7700"/>
<stop offset="0.619792" stop-color="#FF6132"/>
<stop offset="1" stop-color="#F3D741" stop-opacity="0.82"/>
</linearGradient>
<linearGradient id="paint5_linear_1138_725" x1="94" y1="-56.5" x2="94" y2="40" gradientUnits="userSpaceOnUse">
<stop stop-color="#FA7700"/>
<stop offset="0.619792" stop-color="#FF6132"/>
<stop offset="1" stop-color="#F3D741" stop-opacity="0.82"/>
</linearGradient>
<linearGradient id="paint6_linear_1138_725" x1="94" y1="-56.5" x2="94" y2="40" gradientUnits="userSpaceOnUse">
<stop stop-color="#FA7700"/>
<stop offset="0.619792" stop-color="#FF6132"/>
<stop offset="1" stop-color="#F3D741" stop-opacity="0.82"/>
</linearGradient>
<linearGradient id="paint7_linear_1138_725" x1="94" y1="-56.5" x2="94" y2="40" gradientUnits="userSpaceOnUse">
<stop stop-color="#FA7700"/>
<stop offset="0.619792" stop-color="#FF6132"/>
<stop offset="1" stop-color="#F3D741" stop-opacity="0.82"/>
</linearGradient>
</defs>
</svg>
