<svg width="18" height="18" viewBox="0 0 18 18" fill="none" xmlns="http://www.w3.org/2000/svg">
<path d="M6.65615 2.17495L12.9749 8.47495C13.0499 8.54995 13.1029 8.6312 13.1339 8.7187C13.1654 8.8062 13.1812 8.89995 13.1812 8.99995C13.1812 9.09995 13.1654 9.1937 13.1339 9.2812C13.1029 9.3687 13.0499 9.44995 12.9749 9.52495L6.65615 15.8437C6.48115 16.0187 6.2624 16.1062 5.9999 16.1062C5.7374 16.1062 5.5124 16.0125 5.3249 15.825C5.1374 15.6375 5.04365 15.4187 5.04365 15.1687C5.04365 14.9187 5.1374 14.7 5.3249 14.5125L10.8374 8.99995L5.3249 3.48745C5.1499 3.31245 5.0624 3.09695 5.0624 2.84095C5.0624 2.58445 5.15615 2.36245 5.34365 2.17495C5.53115 1.98745 5.7499 1.8937 5.9999 1.8937C6.2499 1.8937 6.46865 1.98745 6.65615 2.17495Z" fill="black"/>
</svg>
