<svg width="100" height="100" viewBox="0 0 100 100" fill="none" xmlns="http://www.w3.org/2000/svg">
<path d="M89.7945 9.8995L67.2639 49.5766L50.1174 32.4301L89.7945 9.8995Z" fill="url(#paint0_linear_1898_893)"/>
<path fill-rule="evenodd" clip-rule="evenodd" d="M29.0219 11.3479C21.0161 19.5382 16.4178 30.986 17.2933 43.3089C18.9177 66.171 38.7679 83.3877 61.6301 81.7634C71.8412 81.0379 80.926 76.6766 87.7091 70.0351L77.1013 59.4273C72.7829 63.6034 67.028 66.342 60.5671 66.8011C45.9683 67.8383 33.2928 56.8445 32.2556 42.2458C31.7008 34.4363 34.5887 27.1772 39.6296 21.9557L29.0219 11.3479Z" fill="url(#paint1_linear_1898_893)"/>
<defs>
<linearGradient id="paint0_linear_1898_893" x1="89.7945" y1="9.8995" x2="48.3227" y2="51.3713" gradientUnits="userSpaceOnUse">
<stop stop-color="#FFCA00"/>
<stop offset="1" stop-color="#FF9900"/>
</linearGradient>
<linearGradient id="paint1_linear_1898_893" x1="58.3655" y1="40.6916" x2="29.3438" y2="69.7133" gradientUnits="userSpaceOnUse">
<stop stop-color="#FF7A00"/>
<stop offset="1" stop-color="#FF0000" stop-opacity="0.74"/>
</linearGradient>
</defs>
</svg>
