<svg width="50" height="50" viewBox="0 0 50 50" fill="none" xmlns="http://www.w3.org/2000/svg">
<circle cx="25" cy="25" r="25" fill="#CFD3D9"/>
<circle cx="25" cy="25" r="15" fill="white"/>
<path fill-rule="evenodd" clip-rule="evenodd" d="M25.3731 26.75C26.3106 26.75 27.2481 25.8125 27.2481 24.875C27.2481 23.9375 26.3106 23 25.3731 23C24.4356 23 23.5 23.9375 23.5 24.875C23.5 25.8125 24.4356 26.75 25.3731 26.75ZM17.8731 26.75C18.8106 26.75 19.7481 25.8125 19.7481 24.875C19.7481 23.9375 18.8106 23 17.8731 23C16.9356 23 16 23.9375 16 24.875C16 25.8125 16.9356 26.75 17.8731 26.75ZM32.8731 26.75C33.8106 26.75 34.7481 25.8125 34.7481 24.875C34.7481 23.9375 33.8106 23 32.8731 23C31.9356 23 31 23.9375 31 24.875C31 25.8125 31.9356 26.75 32.8731 26.75Z" fill="black"/>
</svg>
