<svg width="29" height="29" viewBox="0 0 29 29" fill="none" xmlns="http://www.w3.org/2000/svg">
<path d="M3.48 8.60312C3.33934 8.74343 3.22774 8.9101 3.15159 9.0936C3.07545 9.2771 3.03625 9.47382 3.03625 9.67249C3.03625 9.87117 3.07545 10.0679 3.15159 10.2514C3.22774 10.4349 3.33934 10.6016 3.48 10.7419L13.6421 20.904C13.7539 21.016 13.8866 21.1048 14.0328 21.1655C14.179 21.2261 14.3357 21.2573 14.494 21.2573C14.6522 21.2573 14.8089 21.2261 14.9551 21.1655C15.1013 21.1048 15.234 21.016 15.3458 20.904L25.5079 10.7419C26.1 10.1498 26.1 9.19521 25.5079 8.60312C24.9158 8.01104 23.9612 8.01104 23.3692 8.60312L14.5 17.4723L5.61875 8.59104C5.02666 8.01104 4.07208 8.01104 3.48 8.60312Z" fill="white"/>
</svg>
