<svg width="25" height="25" viewBox="0 0 25 25" fill="none" xmlns="http://www.w3.org/2000/svg">
<path d="M3.51459 20.4863C2.40026 19.3719 1.51634 18.0489 0.913307 16.5929C0.310272 15.1368 -6.96322e-05 13.5763 1.1719e-08 12.0003C0.000140664 8.81749 1.26465 5.76508 3.51534 3.51459C5.76603 1.26409 8.81855 -0.000140641 12.0014 1.17349e-08C15.1842 0.000140664 18.2366 1.26465 20.4871 3.51534C22.7376 5.76603 24.0018 8.81855 24.0017 12.0014C24.0015 15.1842 22.737 18.2366 20.4863 20.4871C18.2356 22.7376 15.1831 24.0018 12.0003 24.0017C8.81749 24.0015 5.76508 22.737 3.51459 20.4863ZM9.04509 7.45584C8.8317 7.25723 8.54962 7.14907 8.25814 7.15411C7.96667 7.15914 7.68849 7.27697 7.48209 7.48284C7.27622 7.68924 7.15839 7.96742 7.15336 8.25889C7.14832 8.55037 7.25648 8.83245 7.45509 9.04584L10.4101 12.0008L7.45509 14.9558C7.307 15.0933 7.19874 15.2683 7.14172 15.4621C7.0847 15.656 7.08103 15.8617 7.13109 16.0574C7.18115 16.2532 7.28309 16.4319 7.42617 16.5746C7.56925 16.7173 7.74817 16.8188 7.94409 16.8683C8.13965 16.9185 8.34511 16.915 8.53886 16.8582C8.7326 16.8015 8.90748 16.6936 9.04509 16.5458L12.0001 13.5908L14.9551 16.5458C15.0926 16.6939 15.2675 16.8022 15.4614 16.8592C15.6552 16.9162 15.8609 16.9199 16.0567 16.8698C16.2525 16.8198 16.4311 16.7178 16.5739 16.5748C16.7166 16.4317 16.818 16.2528 16.8676 16.0568C16.9177 15.8613 16.9142 15.6558 16.8575 15.4621C16.8007 15.2683 16.6928 15.0935 16.5451 14.9558L13.5901 12.0008L16.5451 9.04584C16.6932 8.90833 16.8014 8.73343 16.8585 8.53955C16.9155 8.34568 16.9191 8.14002 16.8691 7.94423C16.819 7.74845 16.7171 7.56979 16.574 7.42708C16.4309 7.28437 16.252 7.18289 16.0561 7.13334C15.8605 7.08321 15.6551 7.08671 15.4613 7.14346C15.2676 7.20021 15.0927 7.30812 14.9551 7.45584L12.0001 10.4108L9.04509 7.45584Z" fill="#818590"/>
</svg>
