<svg width="29" height="29" viewBox="0 0 29 29" fill="none" xmlns="http://www.w3.org/2000/svg">
<path d="M25.52 20.3969C25.6607 20.2566 25.7723 20.0899 25.8484 19.9064C25.9246 19.7229 25.9637 19.5262 25.9637 19.3275C25.9637 19.1288 25.9246 18.9321 25.8484 18.7486C25.7723 18.5651 25.6607 18.3984 25.52 18.2581L15.3579 8.09605C15.2461 7.98403 15.1134 7.89516 14.9672 7.83452C14.821 7.77389 14.6643 7.74268 14.506 7.74268C14.3478 7.74268 14.1911 7.77389 14.0449 7.83452C13.8987 7.89516 13.766 7.98403 13.6542 8.09605L3.49209 18.2581C2.9 18.8502 2.9 19.8048 3.49209 20.3969C4.08417 20.989 5.03875 20.989 5.63084 20.3969L14.5 11.5277L23.3813 20.409C23.9733 20.989 24.9279 20.989 25.52 20.3969Z" fill="white"/>
</svg>
