<svg width="132" height="38" viewBox="0 0 132 38" fill="none" xmlns="http://www.w3.org/2000/svg">
<path d="M0.289062 1.71875H23.4531V6.5625H14.7812V30H8.96094V6.5625H0.289062V1.71875Z" fill="url(#paint0_linear_1722_873)" fill-opacity="0.8"/>
<path d="M26.9688 8.78906H32.75V30H26.9688V8.78906ZM29.8594 6.01562C29.2865 6.01562 28.7591 5.88542 28.2773 5.625C27.7956 5.35156 27.4115 4.99349 27.125 4.55078C26.8385 4.09505 26.6953 3.60677 26.6953 3.08594C26.6953 2.55208 26.8385 2.05729 27.125 1.60156C27.4115 1.14583 27.7956 0.78776 28.2773 0.527344C28.7591 0.253906 29.2865 0.117188 29.8594 0.117188C30.4193 0.117188 30.9401 0.253906 31.4219 0.527344C31.9036 0.78776 32.2812 1.14583 32.5547 1.60156C32.8411 2.05729 32.9844 2.55208 32.9844 3.08594C32.9844 3.60677 32.8411 4.09505 32.5547 4.55078C32.2812 4.99349 31.9036 5.35156 31.4219 5.625C30.9401 5.88542 30.4193 6.01562 29.8594 6.01562Z" fill="url(#paint1_linear_1722_873)" fill-opacity="0.8"/>
<path d="M37.2422 8.78906H42.75V12.5H42.9844C43.4401 11.25 44.1823 10.2734 45.2109 9.57031C46.2396 8.86719 47.4635 8.51562 48.8828 8.51562C50.3281 8.51562 51.5651 8.8737 52.5938 9.58984C53.6224 10.306 54.3125 11.276 54.6641 12.5H54.8594C55.3021 11.2891 56.0964 10.3255 57.2422 9.60938C58.388 8.88021 59.7292 8.51562 61.2656 8.51562C62.5807 8.51562 63.7396 8.80208 64.7422 9.375C65.7578 9.9349 66.5456 10.7617 67.1055 11.8555C67.6654 12.9362 67.9453 14.2318 67.9453 15.7422V30H62.1641V16.875C62.1771 15.7031 61.8711 14.8112 61.2461 14.1992C60.6341 13.5872 59.8333 13.2812 58.8438 13.2812C57.776 13.2812 56.9297 13.6263 56.3047 14.3164C55.6927 14.9935 55.3932 15.8984 55.4062 17.0312V30H49.7812V16.7188C49.7943 15.6771 49.4948 14.8438 48.8828 14.2188C48.2839 13.5938 47.4896 13.2812 46.5 13.2812C45.849 13.2812 45.2565 13.4505 44.7227 13.7891C44.1888 14.1146 43.7721 14.5833 43.4727 15.1953C43.1732 15.7943 43.0234 16.4844 43.0234 17.2656V30H37.2422V8.78906Z" fill="url(#paint2_linear_1722_873)" fill-opacity="0.8"/>
<path d="M82.0078 30.4297C79.8594 30.4297 77.9974 29.987 76.4219 29.1016C74.8464 28.2031 73.6354 26.9336 72.7891 25.293C71.9557 23.6523 71.5391 21.7188 71.5391 19.4922C71.5391 17.3307 71.9557 15.4232 72.7891 13.7695C73.6354 12.1029 74.8333 10.8138 76.3828 9.90234C77.9323 8.97786 79.7292 8.51562 81.7734 8.51562C83.6745 8.51562 85.3737 8.91927 86.8711 9.72656C88.3815 10.5208 89.5664 11.7253 90.4258 13.3398C91.2982 14.9544 91.7344 16.9271 91.7344 19.2578V20.8984H77.2422C77.2422 21.9531 77.4375 22.8711 77.8281 23.6523C78.2318 24.4336 78.7982 25.0391 79.5273 25.4688C80.2695 25.8854 81.1354 26.0938 82.125 26.0938C83.0885 26.0807 83.9154 25.8854 84.6055 25.5078C85.2956 25.1172 85.7839 24.5964 86.0703 23.9453H91.5781C91.3047 25.2604 90.7448 26.4062 89.8984 27.3828C89.0521 28.3464 87.9518 29.0951 86.5977 29.6289C85.2565 30.1628 83.7266 30.4297 82.0078 30.4297ZM86.2656 17.2656C86.2656 16.4193 86.0768 15.6576 85.6992 14.9805C85.3346 14.3034 84.8203 13.7826 84.1562 13.418C83.4922 13.0404 82.737 12.8516 81.8906 12.8516C81.0312 12.8516 80.25 13.0469 79.5469 13.4375C78.8568 13.8281 78.3099 14.362 77.9062 15.0391C77.5026 15.7161 77.2812 16.4583 77.2422 17.2656H86.2656Z" fill="url(#paint3_linear_1722_873)" fill-opacity="0.8"/>
<path d="M95.3672 8.78906H100.953V12.4609H101.188C101.565 11.1849 102.21 10.2018 103.121 9.51172C104.033 8.82161 105.094 8.47656 106.305 8.47656C106.969 8.47656 107.581 8.54167 108.141 8.67188V13.8281C107.867 13.737 107.49 13.6654 107.008 13.6133C106.526 13.5482 106.083 13.5156 105.68 13.5156C104.82 13.5156 104.039 13.7044 103.336 14.082C102.646 14.4596 102.105 14.987 101.715 15.6641C101.337 16.3281 101.148 17.0833 101.148 17.9297V30H95.3672V8.78906Z" fill="url(#paint4_linear_1722_873)" fill-opacity="0.8"/>
<path d="M115.016 37.9688C113.57 37.9427 112.594 37.9036 112.086 37.8516V33.3594C112.75 33.4115 113.531 33.4375 114.43 33.4375C114.885 33.4375 115.27 33.3984 115.582 33.3203C115.895 33.2422 116.188 33.0599 116.461 32.7734C116.734 32.5 116.982 32.0703 117.203 31.4844L117.555 30.5859L109.938 8.78906H115.992L120.445 24.4141H120.68L125.172 8.78906H131.305L123.023 32.3438C122.385 34.1536 121.422 35.5404 120.133 36.5039C118.857 37.4674 117.151 37.9557 115.016 37.9688Z" fill="url(#paint5_linear_1722_873)" fill-opacity="0.8"/>
<defs>
<linearGradient id="paint0_linear_1722_873" x1="65" y1="-40.5" x2="65" y2="30" gradientUnits="userSpaceOnUse">
<stop stop-color="#FA7700"/>
<stop offset="0.619792" stop-color="#FF6132"/>
<stop offset="1" stop-color="#F3D741" stop-opacity="0.82"/>
</linearGradient>
<linearGradient id="paint1_linear_1722_873" x1="65" y1="-40.5" x2="65" y2="30" gradientUnits="userSpaceOnUse">
<stop stop-color="#FA7700"/>
<stop offset="0.619792" stop-color="#FF6132"/>
<stop offset="1" stop-color="#F3D741" stop-opacity="0.82"/>
</linearGradient>
<linearGradient id="paint2_linear_1722_873" x1="65" y1="-40.5" x2="65" y2="30" gradientUnits="userSpaceOnUse">
<stop stop-color="#FA7700"/>
<stop offset="0.619792" stop-color="#FF6132"/>
<stop offset="1" stop-color="#F3D741" stop-opacity="0.82"/>
</linearGradient>
<linearGradient id="paint3_linear_1722_873" x1="65" y1="-40.5" x2="65" y2="30" gradientUnits="userSpaceOnUse">
<stop stop-color="#FA7700"/>
<stop offset="0.619792" stop-color="#FF6132"/>
<stop offset="1" stop-color="#F3D741" stop-opacity="0.82"/>
</linearGradient>
<linearGradient id="paint4_linear_1722_873" x1="65" y1="-40.5" x2="65" y2="30" gradientUnits="userSpaceOnUse">
<stop stop-color="#FA7700"/>
<stop offset="0.619792" stop-color="#FF6132"/>
<stop offset="1" stop-color="#F3D741" stop-opacity="0.82"/>
</linearGradient>
<linearGradient id="paint5_linear_1722_873" x1="65" y1="-40.5" x2="65" y2="30" gradientUnits="userSpaceOnUse">
<stop stop-color="#FA7700"/>
<stop offset="0.619792" stop-color="#FF6132"/>
<stop offset="1" stop-color="#F3D741" stop-opacity="0.82"/>
</linearGradient>
</defs>
</svg>
